<?xml version="1.0" standalone="no"?>
<!DOCTYPE svg PUBLIC "-//W3C//DTD SVG 20010904//EN"
 "http://www.w3.org/TR/2001/REC-SVG-20010904/DTD/svg10.dtd">
<svg version="1.0" xmlns="http://www.w3.org/2000/svg"
 width="400.000000pt" height="200.000000pt" viewBox="0 0 400.000000 200.000000"
 preserveAspectRatio="xMidYMid meet">

<g transform="translate(0.000000,200.000000) scale(0.100000,-0.100000)"
fill="#000000" stroke="none">
<path d="M1595 1418 c-8 -28 -15 -75 -15 -103 0 -59 -5 -63 -102 -90 -115 -32
-276 -13 -405 48 -17 7 -28 6 -47 -7 -28 -18 -34 -36 -39 -111 -1 -27 -6 -56
-11 -63 -5 -8 -11 -72 -14 -142 -5 -127 -5 -128 19 -144 14 -8 74 -23 133 -32
93 -13 184 -15 615 -11 529 5 649 12 886 57 61 11 145 27 188 35 124 22 216
62 192 83 -10 9 -33 15 -251 62 -72 15 -146 35 -165 43 -19 8 -56 17 -81 21
-26 4 -50 11 -53 17 -11 17 -25 9 -25 -14 0 -28 -17 -47 -43 -47 -17 0 -19 5
-14 35 7 41 1 42 -47 14 -34 -20 -35 -20 -45 -1 -8 15 -7 23 4 32 25 21 10 21
-35 1 -44 -20 -70 -18 -70 4 0 7 7 18 15 25 8 7 15 20 14 29 0 9 -3 11 -5 4
-3 -7 -11 -10 -19 -7 -7 3 -27 -4 -44 -17 -51 -38 -85 -2 -38 41 l22 21 -30
-7 c-16 -4 -40 -14 -52 -22 -42 -27 -72 8 -37 42 14 15 14 16 -3 16 -10 -1
-29 -7 -43 -15 -14 -8 -31 -14 -38 -15 -23 0 -25 30 -4 53 l22 23 -22 1 c-12
1 -34 -7 -49 -17 -34 -25 -59 -26 -59 -2 0 24 28 62 46 62 40 0 -10 46 -101
93 -45 23 -122 57 -131 57 -2 0 -10 -23 -19 -52z m215 -333 c25 -8 79 -26 120
-40 168 -60 285 -79 329 -56 12 7 32 6 60 -3 39 -11 41 -13 24 -28 -23 -20
-70 -43 -105 -52 -59 -14 -216 24 -411 98 -96 37 -133 34 -241 -18 -89 -43
-176 -68 -286 -81 l-56 -7 -27 39 -27 38 102 7 c109 6 164 22 283 79 105 50
136 53 235 24z m-609 -192 c13 -16 12 -17 -3 -4 -10 7 -18 15 -18 17 0 8 8 3
21 -13z m816 -29 c-3 -3 -12 -4 -19 -1 -8 3 -5 6 6 6 11 1 17 -2 13 -5z m46
-21 c-7 -2 -21 -2 -30 0 -10 3 -4 5 12 5 17 0 24 -2 18 -5z m50 0 c-7 -2 -19
-2 -25 0 -7 3 -2 5 12 5 14 0 19 -2 13 -5z"/>
<path d="M2240 1174 c0 -2 9 -8 20 -14 11 -6 20 -7 20 -2 0 6 -9 12 -20 15
-11 3 -20 3 -20 1z"/>
<path d="M2340 1130 c8 -5 20 -10 25 -10 6 0 3 5 -5 10 -8 5 -19 10 -25 10 -5
0 -3 -5 5 -10z"/>
<path d="M3004 896 c-31 -21 -106 -47 -159 -56 -27 -5 -104 -18 -170 -30 -402
-72 -389 -71 -929 -77 -435 -5 -517 -3 -635 12 -96 12 -140 22 -148 33 -7 9
-13 11 -13 5 0 -19 29 -35 88 -51 45 -12 151 -16 505 -19 466 -5 730 5 892 32
50 9 135 22 190 31 184 28 357 71 374 92 9 11 23 22 31 24 8 3 10 7 4 11 -6 3
-19 0 -30 -7z"/>
<path d="M938 717 c7 -8 9 -16 6 -20 -3 -3 -1 -22 6 -42 9 -26 15 -34 23 -26
14 14 -10 88 -31 96 -12 4 -12 2 -4 -8z"/>
</g>
</svg>
